<svg width="44" height="44" viewBox="0 0 44 44" fill="none" xmlns="http://www.w3.org/2000/svg">
  <defs></defs>
  <mask id="mask0_212_6254" style="mask-type:alpha" maskUnits="userSpaceOnUse" x="0" y="0" width="31" height="44">
    <path fill-rule="evenodd" clip-rule="evenodd" d="M0 0H14.2887V8.36146C11.1813 8.74895 8.71299 11.1934 8.29024 14.2887H0.226804V16.1031H8.28015C8.68783 19.3604 11.358 21.9147 14.6686 22.1442L0 33.7121V0ZM21.9914 16.3693L30.1649 9.92347V0H16.1031V8.37213C19.4813 8.8342 22.0839 11.7305 22.0839 15.2344C22.0839 15.6209 22.0523 16 21.9914 16.3693ZM0 36.0229L30.1649 12.2342V44H0V36.0229Z" fill="#D9D9D9"></path>
  </mask>
  <g mask="url(#mask0_212_6254)" transform="matrix(1, 0, 0, 1, 7.586496, 0.020081)">
    <path d="M24.03 26.8173C26.5709 24.8684 28.4 22.1377 29.2353 19.0463C30.0706 15.9549 29.8657 12.6746 28.6522 9.71118C27.4387 6.74779 25.2839 4.26593 22.5202 2.64836C19.7566 1.03079 16.5375 0.367362 13.3594 0.76038C10.1814 1.1534 7.22093 2.58104 4.93458 4.82313C2.64822 7.06522 1.16298 9.99721 0.707914 13.167C0.252842 16.3367 0.853217 19.5681 2.41645 22.3629C3.97968 25.1577 6.41893 27.3605 9.35803 28.6317L0.587535 35.547H0.562562V43.213H29.7523V35.547H12.9688L24.03 26.8173Z" fill="#2967E5"></path>
    <path d="M15.1459 0.637329C11.2786 0.643339 7.57185 2.18397 4.83962 4.92087C2.1074 7.65778 0.573125 11.3672 0.573731 15.2344H15.1686L15.1459 0.637329Z" fill="#2967E5"></path>
    <path d="M19.5209 1.30868C18.1023 0.858683 16.6229 0.629204 15.1345 0.628265L15.164 20.7957L29.4277 12.1771C28.8876 9.6502 27.6856 7.3122 25.9448 5.40249C24.2041 3.49278 21.9872 2.07997 19.5209 1.30868Z" fill="#03075F"></path>
    <path d="M0.560133 15.2344L0.47168 34.3177L17.8494 20.7412L15.5451 14.3272L0.560133 15.2344Z" fill="#D4E4F6"></path>
  </g>
</svg>